<mxfile host="app.diagrams.net" modified="2024-05-11T05:58:55.037Z" agent="Mozilla/5.0 (Windows NT 10.0; Win64; x64) AppleWebKit/537.36 (KHTML, like Gecko) Chrome/113.0.0.0 Safari/537.36" version="24.1.0" etag="ktTiUdEEXffnBPNxg7VW" type="github">
  <diagram name="第 1 页" id="W9WQcyDblY8BYKCmj8dJ">
    <mxGraphModel>
      <root>
        <mxCell id="0" />
        <mxCell id="1" parent="0" />
      </root>
    </mxGraphModel>
  </diagram>
</mxfile>
